<svg id="Layer_1" data-name="Layer 1" xmlns="http://www.w3.org/2000/svg" viewBox="0 0 512 512"><title>paypal</title><path d="M512,10.67A10.7,10.7,0,0,0,501.33,0H256C114.62,0,0,114.6,0,256S114.62,512,256,512,512,397.38,512,256Z" fill="#f60"/><path d="M190.29,96a15.93,15.93,0,0,0-15.73,13.5L128.12,404.92A9.57,9.57,0,0,0,137.57,416h54.82a16,16,0,0,0,15.75-13.52l12.54-79.69a15.91,15.91,0,0,1,15.71-13.52h36.34c75.61,0,119.24-36.71,130.64-109.5,5.13-31.83.21-56.83-14.65-74.35C372.42,106.17,343.49,96,305.07,96Zm128,107.9c-6.27,41.33-37.74,41.33-68.18,41.33H232.82L245,168a9.55,9.55,0,0,1,9.44-8.1h7.93c20.71,0,40.29,0,50.37,11.88C318.77,178.85,320.62,189.38,318.31,203.9Z" fill="#fff"/></svg>